<svg xmlns="http://www.w3.org/2000/svg" xmlns:xlink="http://www.w3.org/1999/xlink" viewBox="0 0 100 100">
  <defs><g id="m6"><path d="M0,0 C-10,-7 -9.5,-20 -2,-25 C-.6,-26 .6,-26 2,-25 C9.5,-20 10,-7 0,0 Z" fill="#6fbf73" stroke="#4e9e5b" stroke-width=".9"/><path d="M0,-2 L0,-22" stroke="#3e8f50" stroke-width="1" opacity=".5" fill="none"/></g>
  <clipPath id="c6"><path d="M50,41 C64,41 77,50 78,63 C79,77 67,88 50,88 C33,88 21,77 22,63 C23,50 36,41 50,41 Z"/></clipPath></defs>
  <use xlink:href="#m6" transform="translate(49,46) rotate(-58) scale(1.32)"/>
  <use xlink:href="#m6" transform="translate(51,46) rotate(58) scale(1.32)"/>
  <path d="M50,22 C43,24 41,32 45,38 C47,41 53,41 55,38 C59,32 57,24 50,22 Z" fill="#ffd76b" stroke="#f3b13b" stroke-width=".9"/>
  <path d="M48,27 C46,30 46,35 48,38 C49,36 49,30 48,27 Z" fill="#fff0c2" opacity=".6"/>
  <path d="M50,41 C64,41 77,50 78,63 C79,77 67,88 50,88 C33,88 21,77 22,63 C23,50 36,41 50,41 Z" fill="#c2de9a"/>
  <g clip-path="url(#c6)"><ellipse cx="40" cy="54" rx="12" ry="8" fill="#dcedba" opacity=".7"/><ellipse cx="59" cy="79" rx="16" ry="9" fill="#a6cc7e" opacity=".45"/></g>
  <path d="M50,41 C64,41 77,50 78,63 C79,77 67,88 50,88 C33,88 21,77 22,63 C23,50 36,41 50,41 Z" fill="none" stroke="#86b262" stroke-width="1.3" opacity=".7"/>
  <path d="M39,60 q3.2,2.6 6.4,0" fill="none" stroke="#34433a" stroke-width="1.8" stroke-linecap="round"/>
  <path d="M54.4,60 q3.2,2.6 6.4,0" fill="none" stroke="#34433a" stroke-width="1.8" stroke-linecap="round"/>
  <path d="M46,66 q4,2.4 8,0" fill="none" stroke="#34433a" stroke-width="1.5" stroke-linecap="round"/>
  <ellipse cx="35" cy="65" rx="3.9" ry="2.4" fill="#f4a9b0" opacity=".7"/>
  <ellipse cx="65" cy="65" rx="3.9" ry="2.4" fill="#f4a9b0" opacity=".7"/>
</svg>
